<svg width="11" height="9" viewBox="0 0 11 9" fill="none" xmlns="http://www.w3.org/2000/svg">
<path d="M10.8176 4.98622C10.9344 4.85946 11 4.68755 11 4.50831C11 4.32906 10.9344 4.15715 10.8176 4.03039L7.29334 0.206369C7.23587 0.141806 7.16713 0.090308 7.09112 0.0548805C7.01512 0.0194531 6.93337 0.000805302 6.85065 2.53412e-05C6.76793 -0.000754619 6.68589 0.016349 6.60933 0.0503379C6.53277 0.0843268 6.46321 0.13452 6.40471 0.19799C6.34622 0.26146 6.29996 0.336934 6.26864 0.420009C6.23731 0.503085 6.22155 0.592098 6.22227 0.681854C6.22299 0.77161 6.24017 0.860312 6.27282 0.942784C6.30547 1.02526 6.35293 1.09985 6.41244 1.1622L8.87325 3.83233L0.622989 3.83233C0.457763 3.83233 0.299302 3.90355 0.182468 4.03032C0.0656355 4.15709 -1.89228e-07 4.32903 -1.97064e-07 4.50831C-2.04901e-07 4.68759 0.0656355 4.85953 0.182468 4.9863C0.299302 5.11307 0.457762 5.18429 0.622989 5.18429L8.87325 5.18429L6.41243 7.85441C6.29895 7.9819 6.23616 8.15265 6.23758 8.32989C6.239 8.50713 6.30452 8.67668 6.42002 8.80201C6.53553 8.92734 6.69178 8.99843 6.85513 8.99998C7.01848 9.00152 7.17584 8.93338 7.29334 8.81025L10.8176 4.98622Z" fill="black"/>
</svg>
