<svg width="20" height="20" viewBox="0 0 20 20" fill="none" xmlns="http://www.w3.org/2000/svg">
<path d="M13.809 15.3223C12.089 16.6575 9.92474 17.287 7.75691 17.0827C5.58907 16.8783 3.58058 15.8555 2.14028 14.2224C0.699973 12.5892 -0.0638863 10.4686 0.00418848 8.29207C0.0722632 6.11555 0.967155 4.04678 2.5067 2.50686C4.04652 0.967216 6.11516 0.0722678 8.29154 0.00418875C10.4679 -0.0638903 12.5884 0.700017 14.2215 2.14041C15.8545 3.58081 16.8773 5.58943 17.0816 7.7574C17.2859 9.92537 16.6565 12.0897 15.3214 13.8099L19.6585 18.1474C19.7994 18.2782 19.9023 18.4445 19.9566 18.629C20.0108 18.8134 20.0143 19.009 19.9667 19.1952C19.9191 19.3815 19.8221 19.5514 19.686 19.6871C19.5499 19.8229 19.3798 19.9194 19.1934 19.9665C19.0074 20.0142 18.812 20.0109 18.6277 19.9569C18.4434 19.9029 18.2771 19.8003 18.1462 19.6598L13.809 15.3223ZM14.9789 8.55932C14.9916 7.70839 14.835 6.86343 14.5182 6.07359C14.2013 5.28375 13.7306 4.5648 13.1334 3.95856C12.5361 3.35233 11.8243 2.87091 11.0393 2.5423C10.2544 2.2137 9.41189 2.04448 8.56092 2.04448C7.70994 2.04448 6.86747 2.2137 6.08249 2.5423C5.29751 2.87091 4.5857 3.35233 3.98848 3.95856C3.39125 4.5648 2.92053 5.28375 2.60368 6.07359C2.28684 6.86343 2.13021 7.70839 2.14289 8.55932C2.16803 10.245 2.85527 11.8532 4.05615 13.0364C5.25702 14.2195 6.87514 14.8828 8.56092 14.8828C10.2467 14.8828 11.8648 14.2195 13.0657 13.0364C14.2666 11.8532 14.9538 10.245 14.9789 8.55932Z" fill="black"/>
</svg>
