<svg width="20" height="20" viewBox="0 0 20 20" fill="none" xmlns="http://www.w3.org/2000/svg">
<path d="M1.88674 14.455C1.02874 11.023 0.599738 9.308 1.50074 8.154C2.40074 7 4.17074 7 7.70774 7H12.3377C15.8757 7 17.6437 7 18.5447 8.154C19.4457 9.307 19.0167 11.024 18.1587 14.455C17.6127 16.638 17.3407 17.729 16.5267 18.365C15.7127 19 14.5877 19 12.3377 19H7.70774C5.45774 19 4.33274 19 3.51874 18.365C2.70474 17.729 2.43174 16.638 1.88674 14.455Z" stroke="black" stroke-width="1.5"/>
<path d="M17.5228 7.5L16.8128 4.895C16.5388 3.89 16.4018 3.388 16.1208 3.009C15.8406 2.63246 15.4601 2.3424 15.0228 2.172C14.5828 2 14.0628 2 13.0228 2M2.52277 7.5L3.23277 4.895C3.50677 3.89 3.64377 3.388 3.92477 3.009C4.20494 2.63246 4.58545 2.3424 5.02277 2.172C5.46277 2 5.98277 2 7.02277 2" stroke="black" stroke-width="1.5"/>
<path d="M7.02277 2C7.02277 1.73478 7.12812 1.48043 7.31566 1.29289C7.5032 1.10536 7.75755 1 8.02277 1H12.0228C12.288 1 12.5423 1.10536 12.7299 1.29289C12.9174 1.48043 13.0228 1.73478 13.0228 2C13.0228 2.26522 12.9174 2.51957 12.7299 2.70711C12.5423 2.89464 12.288 3 12.0228 3H8.02277C7.75755 3 7.5032 2.89464 7.31566 2.70711C7.12812 2.51957 7.02277 2.26522 7.02277 2Z" stroke="black" stroke-width="1.5"/>
</svg>
