<svg width="20" height="20" viewBox="0 0 20 20" fill="none" xmlns="http://www.w3.org/2000/svg">
<path d="M17.4167 1.66667H2.58335C2.34024 1.66667 2.10708 1.76325 1.93517 1.93516C1.76326 2.10707 1.66669 2.34022 1.66669 2.58334V17.4167C1.66669 17.6598 1.76326 17.8929 1.93517 18.0649C2.10708 18.2368 2.34024 18.3333 2.58335 18.3333H10.5667V11.875H8.40002V9.37501H10.5667V7.50001C10.5218 7.0598 10.5738 6.61511 10.719 6.19712C10.8641 5.77913 11.099 5.39796 11.4071 5.08035C11.7152 4.76274 12.089 4.51637 12.5024 4.35854C12.9158 4.2007 13.3587 4.13522 13.8 4.16667C14.4486 4.16268 15.0969 4.19607 15.7417 4.26667V6.51667H14.4167C13.3667 6.51667 13.1667 7.01667 13.1667 7.74167V9.35001H15.6667L15.3417 11.85H13.1667V18.3333H17.4167C17.5371 18.3333 17.6563 18.3096 17.7675 18.2636C17.8787 18.2175 17.9797 18.15 18.0649 18.0649C18.15 17.9797 18.2175 17.8787 18.2636 17.7675C18.3096 17.6562 18.3334 17.5371 18.3334 17.4167V2.58334C18.3334 2.46296 18.3096 2.34376 18.2636 2.23255C18.2175 2.12133 18.15 2.02028 18.0649 1.93516C17.9797 1.85004 17.8787 1.78252 17.7675 1.73645C17.6563 1.69038 17.5371 1.66667 17.4167 1.66667Z" fill="black"/>
</svg>
