<svg width="20" height="20" viewBox="0 0 20 20" fill="none" xmlns="http://www.w3.org/2000/svg">
<path d="M18.7167 4.99999C18.075 5.29166 17.3833 5.48333 16.6667 5.575C17.4 5.13333 17.9667 4.43333 18.2333 3.59166C17.5417 4.00833 16.775 4.3 15.9667 4.46666C15.3083 3.75 14.3833 3.33333 13.3333 3.33333C11.375 3.33333 9.77499 4.93333 9.77499 6.90833C9.77499 7.19166 9.80832 7.46666 9.86666 7.725C6.89999 7.575 4.25832 6.14999 2.49999 3.99166C2.19166 4.51666 2.01666 5.13333 2.01666 5.78333C2.01666 7.025 2.64166 8.125 3.60833 8.75C3.01666 8.75 2.46666 8.58333 1.98333 8.33333V8.35833C1.98333 10.0917 3.21666 11.5417 4.84999 11.8667C4.3256 12.0102 3.77507 12.0301 3.24166 11.925C3.468 12.6354 3.91127 13.257 4.50917 13.7024C5.10707 14.1479 5.82953 14.3947 6.57499 14.4083C5.31135 15.4087 3.74499 15.9494 2.13333 15.9417C1.84999 15.9417 1.56666 15.925 1.28333 15.8917C2.86666 16.9083 4.74999 17.5 6.76666 17.5C13.3333 17.5 16.9417 12.05 16.9417 7.325C16.9417 7.16666 16.9417 7.01666 16.9333 6.85833C17.6333 6.35833 18.2333 5.725 18.7167 4.99999Z" fill="black"/>
</svg>
