<svg width="12" height="9" viewBox="0 0 12 9" fill="none" xmlns="http://www.w3.org/2000/svg">
<path d="M0.198985 4.98622C0.0715752 4.85946 2.04899e-07 4.68755 1.97064e-07 4.50831C1.89229e-07 4.32906 0.0715751 4.15715 0.198985 4.03039L4.04363 0.206369C4.10632 0.141806 4.18131 0.090308 4.26423 0.0548805C4.34715 0.0194531 4.43633 0.000805286 4.52657 2.53247e-05C4.61681 -0.000754636 4.7063 0.016349 4.78982 0.0503379C4.87335 0.0843267 4.94923 0.13452 5.01304 0.19799C5.07685 0.26146 5.12732 0.336934 5.16149 0.420009C5.19566 0.503085 5.21286 0.592098 5.21207 0.681854C5.21129 0.77161 5.19254 0.860312 5.15692 0.942784C5.1213 1.02526 5.06953 1.09985 5.00462 1.1622L2.3201 3.83233L11.3204 3.83233C11.5006 3.83233 11.6735 3.90355 11.8009 4.03032C11.9284 4.15709 12 4.32903 12 4.50831C12 4.68759 11.9284 4.85953 11.8009 4.9863C11.6735 5.11307 11.5006 5.18429 11.3204 5.18429L2.3201 5.18429L5.00462 7.85441C5.12842 7.9819 5.19692 8.15265 5.19537 8.32989C5.19382 8.50713 5.12235 8.67668 4.99634 8.80201C4.87033 8.92734 4.69987 8.99843 4.52168 8.99998C4.34348 9.00152 4.17181 8.93338 4.04363 8.81025L0.198985 4.98622Z" fill="black"/>
</svg>
