<svg width="176" height="25" viewBox="0 0 176 25" fill="none" xmlns="http://www.w3.org/2000/svg">
<path d="M18.5469 1.25V24H13.8594L4.71875 8.75V24H0.03125V1.25H4.71875L13.875 16.5156V1.25H18.5469ZM27.6094 1.25V24H22.9375V1.25H27.6094ZM36.6875 1.25V24H32V1.25H36.6875ZM50.3125 1.25L41.2969 12.4844L36.0938 18.0781L35.25 13.6406L38.7656 8.82812L44.5625 1.25H50.3125ZM44.9844 24L38.2812 13.4844L41.75 10.5781L50.5312 24H44.9844ZM67.6094 20.3438V24H55.5V20.3438H67.6094ZM57.0312 1.25V24H52.3438V1.25H57.0312ZM66.0312 10.5156V14.0781H55.5V10.5156H66.0312ZM67.5938 1.25V4.92188H55.5V1.25H67.5938ZM90.1562 18.0469C90.1562 17.6406 90.0938 17.276 89.9688 16.9531C89.8542 16.6198 89.6354 16.3177 89.3125 16.0469C88.9896 15.7656 88.5365 15.4896 87.9531 15.2188C87.3698 14.9479 86.6146 14.6667 85.6875 14.375C84.6562 14.0417 83.6771 13.6667 82.75 13.25C81.8333 12.8333 81.0208 12.349 80.3125 11.7969C79.6146 11.2344 79.0625 10.5833 78.6562 9.84375C78.2604 9.10417 78.0625 8.24479 78.0625 7.26562C78.0625 6.31771 78.2708 5.45833 78.6875 4.6875C79.1042 3.90625 79.6875 3.23958 80.4375 2.6875C81.1875 2.125 82.0729 1.69271 83.0938 1.39062C84.125 1.08854 85.2552 0.9375 86.4844 0.9375C88.1615 0.9375 89.625 1.23958 90.875 1.84375C92.125 2.44792 93.0938 3.27604 93.7812 4.32812C94.4792 5.38021 94.8281 6.58333 94.8281 7.9375H90.1719C90.1719 7.27083 90.0312 6.6875 89.75 6.1875C89.4792 5.67708 89.0625 5.27604 88.5 4.98438C87.9479 4.69271 87.25 4.54688 86.4062 4.54688C85.5938 4.54688 84.9167 4.67188 84.375 4.92188C83.8333 5.16146 83.4271 5.48958 83.1562 5.90625C82.8854 6.3125 82.75 6.77083 82.75 7.28125C82.75 7.66667 82.8438 8.01562 83.0312 8.32812C83.2292 8.64062 83.5208 8.93229 83.9062 9.20312C84.2917 9.47396 84.7656 9.72917 85.3281 9.96875C85.8906 10.2083 86.5417 10.4427 87.2812 10.6719C88.5208 11.0469 89.6094 11.4688 90.5469 11.9375C91.4948 12.4062 92.2865 12.9323 92.9219 13.5156C93.5573 14.099 94.0365 14.7604 94.3594 15.5C94.6823 16.2396 94.8438 17.0781 94.8438 18.0156C94.8438 19.0052 94.651 19.8906 94.2656 20.6719C93.8802 21.4531 93.3229 22.1146 92.5938 22.6562C91.8646 23.1979 90.9948 23.6094 89.9844 23.8906C88.974 24.1719 87.8438 24.3125 86.5938 24.3125C85.4688 24.3125 84.3594 24.1667 83.2656 23.875C82.1719 23.5729 81.1771 23.1198 80.2812 22.5156C79.3958 21.9115 78.6875 21.1406 78.1562 20.2031C77.625 19.2656 77.3594 18.1562 77.3594 16.875H82.0625C82.0625 17.5833 82.1719 18.1823 82.3906 18.6719C82.6094 19.1615 82.9167 19.5573 83.3125 19.8594C83.7188 20.1615 84.1979 20.3802 84.75 20.5156C85.3125 20.651 85.9271 20.7188 86.5938 20.7188C87.4062 20.7188 88.0729 20.6042 88.5938 20.375C89.125 20.1458 89.5156 19.8281 89.7656 19.4219C90.026 19.0156 90.1562 18.5573 90.1562 18.0469ZM108.203 1.25V24H103.531V1.25H108.203ZM115.203 1.25V4.92188H96.6406V1.25H115.203ZM136.125 12.0938V13.1719C136.125 14.901 135.891 16.4531 135.422 17.8281C134.953 19.2031 134.292 20.375 133.438 21.3438C132.583 22.3021 131.562 23.0365 130.375 23.5469C129.198 24.0573 127.891 24.3125 126.453 24.3125C125.026 24.3125 123.719 24.0573 122.531 23.5469C121.354 23.0365 120.333 22.3021 119.469 21.3438C118.604 20.375 117.932 19.2031 117.453 17.8281C116.984 16.4531 116.75 14.901 116.75 13.1719V12.0938C116.75 10.3542 116.984 8.80208 117.453 7.4375C117.922 6.0625 118.583 4.89062 119.438 3.92188C120.302 2.95312 121.323 2.21354 122.5 1.70312C123.688 1.19271 124.995 0.9375 126.422 0.9375C127.859 0.9375 129.167 1.19271 130.344 1.70312C131.531 2.21354 132.552 2.95312 133.406 3.92188C134.271 4.89062 134.938 6.0625 135.406 7.4375C135.885 8.80208 136.125 10.3542 136.125 12.0938ZM131.391 13.1719V12.0625C131.391 10.8542 131.281 9.79167 131.062 8.875C130.844 7.95833 130.521 7.1875 130.094 6.5625C129.667 5.9375 129.146 5.46875 128.531 5.15625C127.917 4.83333 127.214 4.67188 126.422 4.67188C125.63 4.67188 124.927 4.83333 124.312 5.15625C123.708 5.46875 123.193 5.9375 122.766 6.5625C122.349 7.1875 122.031 7.95833 121.812 8.875C121.594 9.79167 121.484 10.8542 121.484 12.0625V13.1719C121.484 14.3698 121.594 15.4323 121.812 16.3594C122.031 17.276 122.354 18.0521 122.781 18.6875C123.208 19.3125 123.729 19.7865 124.344 20.1094C124.958 20.4323 125.661 20.5938 126.453 20.5938C127.245 20.5938 127.948 20.4323 128.562 20.1094C129.177 19.7865 129.693 19.3125 130.109 18.6875C130.526 18.0521 130.844 17.276 131.062 16.3594C131.281 15.4323 131.391 14.3698 131.391 13.1719ZM139.5 1.25H147.984C149.724 1.25 151.219 1.51042 152.469 2.03125C153.729 2.55208 154.698 3.32292 155.375 4.34375C156.052 5.36458 156.391 6.61979 156.391 8.10938C156.391 9.32812 156.182 10.375 155.766 11.25C155.359 12.1146 154.781 12.8385 154.031 13.4219C153.292 13.9948 152.422 14.4531 151.422 14.7969L149.938 15.5781H142.562L142.531 11.9219H148.016C148.839 11.9219 149.521 11.776 150.062 11.4844C150.604 11.1927 151.01 10.7865 151.281 10.2656C151.562 9.74479 151.703 9.14062 151.703 8.45312C151.703 7.72396 151.568 7.09375 151.297 6.5625C151.026 6.03125 150.615 5.625 150.062 5.34375C149.51 5.0625 148.818 4.92188 147.984 4.92188H144.188V24H139.5V1.25ZM152.219 24L147.031 13.8594L151.984 13.8281L157.234 23.7812V24H152.219ZM175.266 20.3438V24H163.156V20.3438H175.266ZM164.688 1.25V24H160V1.25H164.688ZM173.688 10.5156V14.0781H163.156V10.5156H173.688ZM175.25 1.25V4.92188H163.156V1.25H175.25Z" fill="black"/>
</svg>
